<?xml version="1.0" encoding="utf-8"?>
<!-- Generator: Adobe Adobe Illustrator 24.2.0, SVG Export Plug-In . SVG Version: 6.00 Build 0)  -->
<svg version="1.1" xmlns="http://www.w3.org/2000/svg" xmlns:xlink="http://www.w3.org/1999/xlink" x="0px" y="0px"
	 width="841.89px" height="595.28px" viewBox="0 0 841.89 595.28" style="enable-background:new 0 0 841.89 595.28;"
	 xml:space="preserve">
<style type="text/css">
	.st0{display:none;}
	.st1{display:inline;stroke:#000000;stroke-miterlimit:10;}
	.st2{fill:none;}
	.st3{fill:#F2F2F2;}
	.st4{font-family:'PTSans-Caption';}
	.st5{font-size:15px;}
	.st6{fill:none;stroke:#B1B1B1;stroke-miterlimit:10;stroke-dasharray:0,0,0,0,0,0;}
	.st7{font-size:10px;}
	.st8{display:none;fill:none;stroke:#FFFFFF;stroke-linecap:round;stroke-miterlimit:10;stroke-dasharray:6,6,6,6,6,6;}
	.st9{fill:none;stroke:#B1B1B1;stroke-width:2;stroke-linecap:round;stroke-miterlimit:10;stroke-dasharray:0,6,0,6,0,6;}
	.st10{fill:#B1B1B1;}
	.st11{font-family:'SourceSansPro-Regular';}
	.st12{fill:none;stroke:#3467FF;stroke-linecap:round;stroke-miterlimit:10;stroke-dasharray:6,6,6,6,6,6;}
	.st13{fill:#F0F0F0;stroke:#F0F0F0;stroke-miterlimit:10;}
	.st14{fill:#010101;stroke:#010101;stroke-miterlimit:10;}
	.st15{display:inline;fill:none;}
	.st16{display:inline;fill:#F2F2F2;}
	.st17{display:inline;fill:none;stroke:#B1B1B1;stroke-miterlimit:10;stroke-dasharray:0,0,0,0,0,0;}
	.st18{fill:none;stroke:#FFFFFF;stroke-linecap:round;stroke-miterlimit:10;stroke-dasharray:6,6,6,6,6,6;}
	
		.st19{display:inline;fill:none;stroke:#B1B1B1;stroke-width:2;stroke-linecap:round;stroke-miterlimit:10;stroke-dasharray:0,6,0,6,0,6;}
	.st20{display:inline;fill:#B1B1B1;}
	.st21{display:inline;}
	.st22{clip-path:url(#SVGID_2_);fill:none;stroke:#F0F0F0;stroke-miterlimit:10;}
	.st23{clip-path:url(#SVGID_4_);fill:none;stroke:#F0F0F0;stroke-miterlimit:10;}
	.st24{clip-path:url(#SVGID_6_);fill:#F0F0F0;stroke:#F0F0F0;stroke-miterlimit:10;}
	.st25{clip-path:url(#SVGID_8_);fill:#F0F0F0;stroke:#F0F0F0;stroke-miterlimit:10;}
	.st26{clip-path:url(#SVGID_10_);fill:#F0F0F0;stroke:#F0F0F0;stroke-miterlimit:10;}
	.st27{clip-path:url(#SVGID_12_);fill:#F0F0F0;stroke:#F0F0F0;stroke-miterlimit:10;}
	.st28{fill:none;stroke:#F0F0F0;stroke-miterlimit:10;}
</style>
<g id="Layer_12" class="st0">
	<rect class="st1" width="841.89" height="595.28"/>
</g>
<g id="etapa1_1_">
	<rect x="63.59" y="435.48" class="st2" width="161.03" height="12"/>
	<text id="textositiodelanzamiento" transform="matrix(1 0 0 1 63.5864 445.9766)" class="st3 st4 st5">Sitio de lanzamiento</text>
	<line id="líneakarman" class="st6" x1="63.44" y1="159.43" x2="823.78" y2="160.14"/>
	<rect x="62.47" y="149.78" class="st2" width="107" height="7.5"/>
	<text id="textolíneadekarman" transform="matrix(1 0 0 1 62.4685 156.7832)" class="st3 st4 st7">Línea de Karman</text>
	<path id="trayectoria_2b" class="st8" d="M258.81,185.78c48.39-36.77,172.02-32.83,222.84,8.52"/>
	<path id="trayectoria_3b" class="st8" d="M579.08,320.13c0,0-35.05-77.62-65.2-103.28"/>
	<path id="trayectoria_1" class="st8" d="M131.62,334.49c18.22-53.4,49.01-99.07,93-134.42"/>
	<path id="trayectoria_2a" class="st8" d="M426.06,116.48c-61.93,2.8-122.92,24.08-173.15,60.4"/>
	<path id="trayectoria_3a" class="st8" d="M757.7,321.89c-25.83-55.59-73.06-113-123.61-147.67
		c-50.56-34.67-113.23-55.11-174.4-59.17"/>
	<line id="línealugardeaterrizaje" class="st6" x1="62.78" y1="429.8" x2="823.78" y2="430.51"/>
	<line id="línea80km" class="st9" x1="64.76" y1="214.2" x2="821.18" y2="214.43"/>
	<line id="línea60km" class="st9" x1="62.78" y1="268.49" x2="821.18" y2="268.72"/>
	<line id="línea20km" class="st9" x1="67.78" y1="375.9" x2="828.78" y2="376.13"/>
	<line id="línea40km" class="st9" x1="62.47" y1="321.89" x2="823.47" y2="322.12"/>
	<rect x="35.78" y="370.62" class="st2" width="27" height="7.18"/>
	<text id="_x32_0km" transform="matrix(1 0 0 1 35.781 377.7444)" class="st10 st11 st7">20 km</text>
	<rect x="35.78" y="317.16" class="st2" width="27" height="7.18"/>
	<text id="_x34_0km" transform="matrix(1 0 0 1 35.781 324.2782)" class="st10 st11 st7">40 km</text>
	<rect x="35.78" y="263.69" class="st2" width="27" height="7.18"/>
	<text id="_x36_0km" transform="matrix(1 0 0 1 35.781 270.812)" class="st10 st11 st7">60 km</text>
	<rect x="35.78" y="210.23" class="st2" width="27" height="7.18"/>
	<text id="_x38_0km" transform="matrix(1 0 0 1 35.781 217.3459)" class="st10 st11 st7">80 km</text>
	<rect x="32.03" y="155.84" class="st2" width="31.5" height="7.18"/>
	<text id="_x31_00km" transform="matrix(1 0 0 1 32.031 162.9569)" class="st10 st11 st7">100 km</text>
	<rect x="430.32" y="88.82" class="st2" width="31.5" height="7.18"/>
	<text transform="matrix(1 0 0 1 430.3207 95.9449)" class="st10 st11 st7">106 km</text>
	<g id="Layer_16">
		<path class="st12" d="M130.79,333.45C192.41,182.3,283.93,162.47,354.5,161.26c69-1.18,163.69,8.73,224.37,160.78"/>
		<g id="Layer_17">
			<path class="st12" d="M246.27,175.71c54.22-41.86,111.01-62.66,184.34-62.66c90.37,0,222.91,36.26,328.01,210.29"/>
		</g>
	</g>
	<g id="etapa1">
		<g>
			<path class="st13" d="M115.16,309.97c-11.52-0.47-12.1,17.88-12.1,17.88l23.61-0.09C126.68,327.76,126.26,310.43,115.16,309.97z"
				/>
			<path class="st13" d="M103.16,328.01l0.15,7.21c0.01,0.45,0.34,0.83,0.78,0.91l1.84,0.32l0.05,1.69l0.24,0.6l-0.69,2.41
				l0.1,61.66l-5.73,3.47l0.04,3.6l5.05,2.53c0,0,0.76,4.87,1.92,5.9c1.32,1.16,6.91,1.29,6.91,1.29l-1.17,3.66l4.35-0.09
				l-1.01-3.47c0,0,5.48,0.02,6.81-1.07c1.26-1.03,2.27-6.12,2.27-6.12l4.86-2.33l0.13-3.91l-5.58-3.35l-0.13-61.49l-0.81-2.63
				l0.27-0.54l0.12-1.91l2.31-0.35c0.25-0.04,0.44-0.26,0.44-0.51l0.01-7.56L103.16,328.01z"/>
		</g>
		<g id="ventanas_1_">
			<path class="st14" d="M109.66,315.38L109.66,315.38c0.92,0.13,1.55,0.82,1.4,1.56l-0.79,4.11c-0.12,0.6-0.84,1.01-1.59,0.9
				l-1.27-0.19c-0.77-0.12-1.25-0.73-1.05-1.33l1.33-4.03C107.91,315.69,108.77,315.25,109.66,315.38z"/>
			<path class="st14" d="M119.76,315.41L119.76,315.41c0.9-0.2,1.84,0.21,2.11,0.93l1.5,3.98c0.22,0.59-0.21,1.2-0.95,1.36
				l-1.25,0.26c-0.76,0.16-1.52-0.23-1.67-0.84l-0.97-4.1C118.35,316.29,118.89,315.6,119.76,315.41z"/>
			<path class="st14" d="M114.93,315.36L114.93,315.36c0.94-0.01,1.71,0.58,1.74,1.33l0.16,4.16c0.02,0.61-0.59,1.12-1.36,1.11
				l-1.3,0c-0.78,0-1.4-0.53-1.34-1.16l0.38-4.16C113.29,315.92,114.03,315.36,114.93,315.36z"/>
		</g>
	</g>
	<rect x="131.62" y="346.74" class="st2" width="130" height="12"/>
	<text id="textodespeguenewshepard" transform="matrix(1 0 0 1 131.6195 353.7396)" class="st3 st4 st7">Despegue New Shepard</text>
	<rect x="734" y="435.48" class="st2" width="89.78" height="22"/>
	<text id="textositiodelanzamiento_10_" transform="matrix(1 0 0 1 750.4524 442.4766)"><tspan x="0" y="0" class="st3 st4 st7">Este gráfico no </tspan><tspan x="9.59" y="12" class="st3 st4 st7">está a escala</tspan></text>
</g>
<g id="etapa2_1_" class="st0">
	<rect x="63.59" y="435.48" class="st15" width="161.03" height="12"/>
	<text id="textositiodelanzamiento_3_" transform="matrix(1 0 0 1 63.5864 445.9766)" class="st16 st4 st5">Sitio de lanzamiento</text>
	<line id="líneakarman_1_" class="st17" x1="63.44" y1="159.43" x2="823.78" y2="160.14"/>
	<rect x="62.47" y="149.78" class="st15" width="110" height="7.5"/>
	<text id="textolíneadekarman_1_" transform="matrix(1 0 0 1 62.4685 156.7832)" class="st16 st4 st7">Línea de Karman</text>
	<path id="trayectoria_2b_1_" class="st18" d="M258.81,185.78c48.39-36.77,172.02-32.83,222.84,8.52"/>
	<path id="trayectoria_3b_1_" class="st18" d="M579.08,320.13c0,0-35.05-77.62-65.2-103.28"/>
	<path id="trayectoria_1_1_" class="st18" d="M131.62,334.49c18.22-53.4,49.01-99.07,93-134.42"/>
	<path id="trayectoria_2a_1_" class="st18" d="M426.06,116.48c-61.93,2.8-122.92,24.08-173.15,60.4"/>
	<path id="trayectoria_3a_1_" class="st18" d="M757.7,321.89c-25.83-55.59-73.06-113-123.61-147.67
		c-50.56-34.67-113.23-55.11-174.4-59.17"/>
	<line id="línealugardeaterrizaje_1_" class="st17" x1="62.78" y1="429.8" x2="823.78" y2="430.51"/>
	<line id="línea80km_1_" class="st19" x1="64.76" y1="214.2" x2="821.18" y2="214.43"/>
	<line id="línea60km_1_" class="st19" x1="62.78" y1="268.49" x2="821.18" y2="268.72"/>
	<line id="línea20km_1_" class="st19" x1="67.78" y1="375.9" x2="828.78" y2="376.13"/>
	<line id="línea40km_1_" class="st19" x1="62.47" y1="321.89" x2="823.47" y2="322.12"/>
	<rect x="35.78" y="370.62" class="st15" width="27" height="7.18"/>
	<text id="_x32_0km_1_" transform="matrix(1 0 0 1 35.781 377.7444)" class="st20 st11 st7">20 km</text>
	<rect x="35.78" y="317.16" class="st15" width="27" height="7.18"/>
	<text id="_x34_0km_1_" transform="matrix(1 0 0 1 35.781 324.2782)" class="st20 st11 st7">40 km</text>
	<rect x="35.78" y="263.69" class="st15" width="27" height="7.18"/>
	<text id="_x36_0km_1_" transform="matrix(1 0 0 1 35.781 270.812)" class="st20 st11 st7">60 km</text>
	<rect x="35.78" y="210.23" class="st15" width="27" height="7.18"/>
	<text id="_x38_0km_1_" transform="matrix(1 0 0 1 35.781 217.3459)" class="st20 st11 st7">80 km</text>
	<rect x="32.03" y="155.84" class="st15" width="31.5" height="7.18"/>
	<text id="_x31_00km_1_" transform="matrix(1 0 0 1 32.031 162.9569)" class="st20 st11 st7">100 km</text>
	<rect x="430.32" y="88.82" class="st15" width="31.5" height="7.18"/>
	<text transform="matrix(1 0 0 1 430.3207 95.9449)" class="st20 st11 st7">106 km</text>
	<g id="Layer_16_copy" class="st21">
		<path class="st12" d="M130.79,333.45C192.41,182.3,283.93,162.47,354.5,161.26c69-1.18,163.69,8.73,224.37,160.78"/>
		<g id="Layer_17_copy">
			<path class="st12" d="M246.27,175.71c54.22-41.86,111.01-62.66,184.34-62.66c90.37,0,222.91,36.26,328.01,210.29"/>
		</g>
	</g>
	<g id="etapa2" class="st21">
		<path class="st13" d="M238.29,167.9c-11.52-0.47-12.1,17.88-12.1,17.88l23.61-0.09C249.8,185.69,249.39,168.35,238.29,167.9z"/>
		<path class="st13" d="M226.17,197.01l0.15,7.21c0.01,0.45,0.34,0.83,0.78,0.91l1.84,0.32l0.05,1.69l0.24,0.6l-0.69,2.41l0.1,61.66
			l-0.64,9.6c0,0,0.76,4.87,1.92,5.9c1.32,1.16,6.91,1.29,6.91,1.29l-1.17,3.66l4.35-0.09l-1.01-3.47c0,0,5.48,0.02,6.81-1.07
			c1.26-1.03,2.27-6.12,2.27-6.12l-0.59-9.59l-0.13-61.49l-0.81-2.63l0.27-0.54l0.12-1.91l2.31-0.35c0.25-0.04,0.44-0.26,0.44-0.51
			l0.01-7.56L226.17,197.01z"/>
		<g id="ventanas">
			<path class="st14" d="M232.72,173.42L232.72,173.42c0.92,0.13,1.55,0.82,1.4,1.56l-0.79,4.11c-0.12,0.6-0.84,1.01-1.59,0.9
				l-1.27-0.19c-0.77-0.12-1.25-0.73-1.05-1.33l1.33-4.03C230.97,173.74,231.83,173.3,232.72,173.42z"/>
			<path class="st14" d="M242.95,173.45L242.95,173.45c0.9-0.2,1.84,0.21,2.11,0.93l1.5,3.98c0.22,0.59-0.21,1.2-0.95,1.36
				l-1.25,0.26c-0.76,0.16-1.52-0.23-1.67-0.84l-0.97-4.1C241.55,174.33,242.08,173.64,242.95,173.45z"/>
			<path class="st14" d="M237.94,173.4L237.94,173.4c0.94-0.01,1.71,0.58,1.74,1.33l0.16,4.16c0.02,0.61-0.59,1.12-1.36,1.11l-1.3,0
				c-0.78,0-1.4-0.53-1.34-1.16l0.38-4.16C236.3,173.96,237.04,173.41,237.94,173.4z"/>
		</g>
	</g>
	<rect x="258.81" y="194.07" class="st15" width="62" height="12"/>
	<text id="textoseparación" transform="matrix(1 0 0 1 258.805 201.0717)" class="st16 st4 st7">Separación</text>
	<rect x="734" y="435.48" class="st15" width="89.78" height="22"/>
	<text id="textositiodelanzamiento_9_" transform="matrix(1 0 0 1 750.4524 442.4766)" class="st21"><tspan x="0" y="0" class="st3 st4 st7">Este gráfico no </tspan><tspan x="9.59" y="12" class="st3 st4 st7">está a escala</tspan></text>
</g>
<g id="etapa3_1_" class="st0">
	<rect x="63.59" y="435.48" class="st15" width="161.03" height="12"/>
	<text id="textositiodelanzamiento_5_" transform="matrix(1 0 0 1 63.5864 445.9766)" class="st16 st4 st5">Sitio de lanzamiento</text>
	<line id="líneakarman_2_" class="st17" x1="63.44" y1="159.43" x2="823.78" y2="160.14"/>
	<rect x="62.47" y="149.78" class="st15" width="111" height="7.5"/>
	<text id="textolíneadekarman_2_" transform="matrix(1 0 0 1 62.4685 156.7832)" class="st16 st4 st7">Línea de Karman</text>
	<path id="trayectoria_2b_2_" class="st18" d="M258.81,185.78c48.39-36.77,172.02-32.83,222.84,8.52"/>
	<path id="trayectoria_3b_2_" class="st18" d="M579.08,320.13c0,0-35.05-77.62-65.2-103.28"/>
	<path id="trayectoria_1_2_" class="st18" d="M131.62,334.49c18.22-53.4,49.01-99.07,93-134.42"/>
	<path id="trayectoria_2a_2_" class="st18" d="M426.06,116.48c-61.93,2.8-122.92,24.08-173.15,60.4"/>
	<path id="trayectoria_3a_2_" class="st18" d="M757.7,321.89c-25.83-55.59-73.06-113-123.61-147.67
		c-50.56-34.67-113.23-55.11-174.4-59.17"/>
	<line id="línealugardeaterrizaje_2_" class="st17" x1="62.78" y1="429.8" x2="823.78" y2="430.51"/>
	<line id="línea80km_2_" class="st19" x1="64.76" y1="214.2" x2="821.18" y2="214.43"/>
	<line id="línea60km_2_" class="st19" x1="62.78" y1="268.49" x2="821.18" y2="268.72"/>
	<line id="línea20km_2_" class="st19" x1="67.78" y1="375.9" x2="828.78" y2="376.13"/>
	<line id="línea40km_2_" class="st19" x1="62.47" y1="321.89" x2="823.47" y2="322.12"/>
	<rect x="35.78" y="370.62" class="st15" width="27" height="7.18"/>
	<text id="_x32_0km_2_" transform="matrix(1 0 0 1 35.781 377.7444)" class="st20 st11 st7">20 km</text>
	<rect x="35.78" y="317.16" class="st15" width="27" height="7.18"/>
	<text id="_x34_0km_2_" transform="matrix(1 0 0 1 35.781 324.2782)" class="st20 st11 st7">40 km</text>
	<rect x="35.78" y="263.69" class="st15" width="27" height="7.18"/>
	<text id="_x36_0km_2_" transform="matrix(1 0 0 1 35.781 270.812)" class="st20 st11 st7">60 km</text>
	<rect x="35.78" y="210.23" class="st15" width="27" height="7.18"/>
	<text id="_x38_0km_2_" transform="matrix(1 0 0 1 35.781 217.3459)" class="st20 st11 st7">80 km</text>
	<rect x="32.03" y="155.84" class="st15" width="31.5" height="7.18"/>
	<text id="_x31_00km_2_" transform="matrix(1 0 0 1 32.031 162.9569)" class="st20 st11 st7">100 km</text>
	<rect x="430.32" y="88.82" class="st15" width="31.5" height="7.18"/>
	<text transform="matrix(1 0 0 1 430.3207 95.9449)" class="st20 st11 st7">106 km</text>
	<g id="Layer_16_copy_3" class="st21">
		<path class="st12" d="M130.79,333.45C192.41,182.3,283.93,162.47,354.5,161.26c69-1.18,163.69,8.73,224.37,160.78"/>
		<g id="Layer_17_copy_3">
			<path class="st12" d="M246.27,175.71c54.22-41.86,111.01-62.66,184.34-62.66c90.37,0,222.91,36.26,328.01,210.29"/>
		</g>
	</g>
	<g id="etapa3" class="st21">
		<path class="st13" d="M444.24,109.55c-11.52-0.47-12.1,17.88-12.1,17.88l23.61-0.09C455.75,127.34,455.33,110,444.24,109.55z"/>
		<path class="st13" d="M487.4,197.01c0,0-6.39,3.66-6.35,5.46c0.01,0.45,6.84,2.58,7.28,2.66l1.84,0.32l0.05,1.69l0.24,0.6
			l-0.69,2.41l0.1,61.66l-0.64,9.6c0,0,0.76,4.87,1.92,5.9c1.32,1.16,6.91,1.29,6.91,1.29l-1.17,3.66l4.35-0.09l-1.01-3.47
			c0,0,5.48,0.02,6.81-1.07c1.26-1.03,2.27-6.12,2.27-6.12l-0.59-9.59l-0.13-61.49l-0.81-2.63l0.27-0.54l0.12-1.91l2.31-0.35
			c0.25-0.04,6.19-2.51,6.19-2.76c0-1.89-5.74-5.31-5.74-5.31L487.4,197.01z"/>
		<g id="ventanas_2_">
			<path class="st14" d="M438.88,114.72L438.88,114.72c0.92,0.13,1.55,0.82,1.4,1.56l-0.79,4.11c-0.12,0.6-0.84,1.01-1.59,0.9
				l-1.27-0.19c-0.77-0.12-1.25-0.73-1.05-1.33l1.33-4.03C437.13,115.03,437.99,114.59,438.88,114.72z"/>
			<path class="st14" d="M444.17,115.05L444.17,115.05c0.94-0.01,1.71,0.58,1.74,1.33l0.16,4.16c0.02,0.61-0.59,1.12-1.36,1.11
				l-1.3,0c-0.78,0-1.4-0.53-1.34-1.16l0.38-4.16C442.52,115.61,443.27,115.06,444.17,115.05z"/>
			<path class="st14" d="M448.9,115.1L448.9,115.1c0.9-0.2,1.84,0.21,2.11,0.93l1.5,3.98c0.22,0.59-0.21,1.2-0.95,1.36l-1.25,0.26
				c-0.76,0.16-1.52-0.23-1.67-0.84l-0.97-4.1C447.5,115.99,448.03,115.29,448.9,115.1z"/>
		</g>
	</g>
	<rect x="384.07" y="134.54" class="st15" width="124" height="12"/>
	<text id="textolibrecacióndelacápsula" transform="matrix(1 0 0 1 384.0707 141.5446)" class="st16 st4 st7">Liberación de la cápsula</text>
	<rect x="527.4" y="186.82" class="st15" width="89" height="22"/>
	
		<text id="DESPLIEGUE_DE_LOS_FRENOS_DE_ARRASTRE_SE_ENCIENDE_NUEVAMENTE_EL_MOTOR" transform="matrix(1 0 0 1 527.3946 193.8217)" class="st21"><tspan x="0" y="0" class="st3 st4 st7">Despliegue de los </tspan><tspan x="0" y="12" class="st3 st4 st7">frenos de arrastre</tspan></text>
	<rect x="734" y="435.48" class="st15" width="89.78" height="22"/>
	<text id="textositiodelanzamiento_8_" transform="matrix(1 0 0 1 750.4524 442.4766)" class="st21"><tspan x="0" y="0" class="st3 st4 st7">Este gráfico no </tspan><tspan x="9.59" y="12" class="st3 st4 st7">está a escala</tspan></text>
</g>
<g id="etapa4_1_" class="st0">
	<rect x="63.59" y="435.48" class="st15" width="161.03" height="12"/>
	<text id="textositiodelanzamiento_7_" transform="matrix(1 0 0 1 63.5864 445.9766)" class="st16 st4 st5">Sitio de lanzamiento</text>
	<rect x="734" y="435.48" class="st15" width="89.78" height="22"/>
	<text id="textositiodelanzamiento_6_" transform="matrix(1 0 0 1 750.4524 442.4766)" class="st21"><tspan x="0" y="0" class="st3 st4 st7">Este gráfico no </tspan><tspan x="9.59" y="12" class="st3 st4 st7">está a escala</tspan></text>
	<line id="líneakarman_3_" class="st17" x1="63.44" y1="159.43" x2="823.78" y2="160.14"/>
	<rect x="62.47" y="149.78" class="st15" width="110" height="7.5"/>
	<text id="textolíneadekarman_3_" transform="matrix(1 0 0 1 62.4685 156.7832)" class="st16 st4 st7">Línea de Karman</text>
	<path id="trayectoria_2b_3_" class="st18" d="M258.81,185.78c48.39-36.77,172.02-32.83,222.84,8.52"/>
	<path id="trayectoria_3b_3_" class="st18" d="M579.08,320.13c0,0-35.05-77.62-65.2-103.28"/>
	<path id="trayectoria_1_3_" class="st18" d="M131.62,334.49c18.22-53.4,49.01-99.07,93-134.42"/>
	<path id="trayectoria_2a_3_" class="st18" d="M426.06,116.48c-61.93,2.8-122.92,24.08-173.15,60.4"/>
	<path id="trayectoria_3a_3_" class="st18" d="M754.79,292.89c-29.58-49.21-70.14-84-120.69-118.67
		c-50.56-34.67-113.23-55.11-174.4-59.17"/>
	<line id="línealugardeaterrizaje_3_" class="st17" x1="62.78" y1="429.8" x2="823.78" y2="430.51"/>
	<line id="línea80km_3_" class="st19" x1="64.76" y1="214.2" x2="821.18" y2="214.43"/>
	<line id="línea60km_3_" class="st19" x1="62.78" y1="268.49" x2="821.18" y2="268.72"/>
	<line id="línea20km_3_" class="st19" x1="67.78" y1="375.9" x2="828.78" y2="376.13"/>
	<line id="línea40km_3_" class="st19" x1="62.47" y1="321.89" x2="823.47" y2="322.12"/>
	<rect x="35.78" y="370.62" class="st15" width="27" height="7.18"/>
	<text id="_x32_0km_3_" transform="matrix(1 0 0 1 35.781 377.7444)" class="st16 st11 st7">20 km</text>
	<rect x="35.78" y="317.16" class="st15" width="27" height="7.18"/>
	<text id="_x34_0km_3_" transform="matrix(1 0 0 1 35.781 324.2782)" class="st16 st11 st7">40 km</text>
	<rect x="35.78" y="263.69" class="st15" width="27" height="7.18"/>
	<text id="_x36_0km_3_" transform="matrix(1 0 0 1 35.781 270.812)" class="st16 st11 st7">60 km</text>
	<rect x="35.78" y="210.23" class="st15" width="27" height="7.18"/>
	<text id="_x38_0km_3_" transform="matrix(1 0 0 1 35.781 217.3459)" class="st16 st11 st7">80 km</text>
	<rect x="32.03" y="155.84" class="st15" width="31.5" height="7.18"/>
	<text id="_x31_00km_3_" transform="matrix(1 0 0 1 32.031 162.9569)" class="st16 st11 st7">100 km</text>
	<rect x="430.32" y="88.82" class="st15" width="31.5" height="7.18"/>
	<text transform="matrix(1 0 0 1 430.3207 95.9449)" class="st16 st11 st7">106 km</text>
	<g id="Layer_16_copy_2" class="st21">
		<path class="st12" d="M130.79,333.45C192.41,182.3,283.93,162.47,354.5,161.26c69-1.18,163.69,8.73,224.37,160.78"/>
		<g id="Layer_17_copy_2">
			<path class="st12" d="M246.27,175.71c54.22-41.86,111.01-62.66,184.34-62.66c90.37,0,222.91,36.26,328.01,210.29"/>
		</g>
	</g>
	<g id="etapa4" class="st21">
		<g id="Layer_27">
			<line class="st13" x1="578.82" y1="430.51" x2="579.34" y2="401.48"/>
			<g>
				<g>
					<defs>
						<rect id="SVGID_1_" x="554.82" y="401.88" width="15.13" height="28.38"/>
					</defs>
					<clipPath id="SVGID_2_">
						<use xlink:href="#SVGID_1_"  style="overflow:visible;"/>
					</clipPath>
					<path class="st22" d="M569.68,402.3l-14.28,8.85l-0.08,19.1l0-13.42l13.47-7.38c0.11-0.06,0.05-0.23-0.07-0.21l-13.07,1.99"/>
				</g>
				<g>
					<defs>
						<rect id="SVGID_3_" x="588.61" y="401.88" width="15.13" height="28.38"/>
					</defs>
					<clipPath id="SVGID_4_">
						<use xlink:href="#SVGID_3_"  style="overflow:visible;"/>
					</clipPath>
					<path class="st23" d="M588.88,402.3l14.28,8.85l0.08,19.1l0-13.42l-13.47-7.38c-0.11-0.06-0.05-0.23,0.07-0.21l13.07,1.99"/>
				</g>
			</g>
			<path class="st13" d="M567.35,323.79c0,0-6.39,3.66-6.35,5.46c0.01,0.45,6.84,2.58,7.28,2.66l1.84,0.32l0.05,1.69l0.24,0.6
				l-0.69,2.41l0.1,61.66l-0.64,9.6c0,0,0.76,4.87,1.92,5.9c1.32,1.16,6.91,1.29,6.91,1.29l-1.17,3.66l4.35-0.09l-1.01-3.47
				c0,0,5.48,0.02,6.81-1.07c1.26-1.03,2.27-6.12,2.27-6.12l-0.59-9.59l-0.13-61.49l-0.81-2.63l0.27-0.54l0.12-1.91l2.31-0.35
				c0.25-0.04,6.19-2.51,6.19-2.76c0-1.89-5.74-5.31-5.74-5.31L567.35,323.79z"/>
		</g>
		<g id="Layer_15">
			<g>
				<g>
					<defs>
						<rect id="SVGID_5_" x="749.79" y="356.67" width="9.92" height="22.46"/>
					</defs>
					<clipPath id="SVGID_6_">
						<use xlink:href="#SVGID_5_"  style="overflow:visible;"/>
					</clipPath>
					<line class="st24" x1="759.24" y1="378.94" x2="750.25" y2="356.86"/>
				</g>
				<g>
					<defs>
						<rect id="SVGID_7_" x="759.12" y="356.67" width="9.92" height="22.46"/>
					</defs>
					<clipPath id="SVGID_8_">
						<use xlink:href="#SVGID_7_"  style="overflow:visible;"/>
					</clipPath>
					<line class="st25" x1="759.58" y1="378.94" x2="768.57" y2="356.86"/>
				</g>
			</g>
			<g>
				<g>
					<defs>
						<rect id="SVGID_9_" x="729" y="302.73" width="27.48" height="56.07"/>
					</defs>
					<clipPath id="SVGID_10_">
						<use xlink:href="#SVGID_9_"  style="overflow:visible;"/>
					</clipPath>
					<path class="st26" d="M750.39,357.1l-20.53-39.38l20.63,39.42l5.47-44.5c0,0-4.77-11.46-15.36-9.1
						c-12.66,2.83-11.03,13.97-11.03,13.97l26.67-4.81"/>
				</g>
				<g>
					<defs>
						<rect id="SVGID_11_" x="762.63" y="302.73" width="27.48" height="56.07"/>
					</defs>
					<clipPath id="SVGID_12_">
						<use xlink:href="#SVGID_11_"  style="overflow:visible;"/>
					</clipPath>
					<path class="st27" d="M768.72,357.1l20.53-39.38l-20.63,39.42l-5.47-44.5c0,0,4.77-11.46,15.36-9.1
						c12.66,2.83,11.03,13.97,11.03,13.97l-26.67-4.81"/>
				</g>
			</g>
			<path class="st28" d="M759.64,378.51l-0.69-26.66l-14.29-40.63l14.43,40.67l12.92-43.75c0,0-4.36-12.97-15.36-11.35
				c-12.84,1.89-12.28,14.22-12.28,14.22l27.42-2.81"/>
			<path class="st13" d="M759.24,378.94c-11.52-0.47-12.1,17.88-12.1,17.88l23.61-0.09C770.75,396.73,770.33,379.39,759.24,378.94z"
				/>
			<g id="ventanas_3_">
				<path class="st14" d="M753.67,384.46L753.67,384.46c0.92,0.13,1.55,0.82,1.4,1.56l-0.79,4.11c-0.12,0.6-0.84,1.01-1.59,0.9
					l-1.27-0.19c-0.77-0.12-1.25-0.73-1.05-1.33l1.33-4.03C751.92,384.78,752.78,384.34,753.67,384.46z"/>
				<path class="st14" d="M763.9,384.49L763.9,384.49c0.9-0.2,1.84,0.21,2.11,0.93l1.5,3.98c0.22,0.59-0.21,1.2-0.95,1.36
					l-1.25,0.26c-0.76,0.16-1.52-0.23-1.67-0.84l-0.97-4.1C762.5,385.37,763.03,384.68,763.9,384.49z"/>
				<path class="st14" d="M758.89,384.44L758.89,384.44c0.94-0.01,1.71,0.58,1.74,1.33l0.16,4.16c0.02,0.61-0.59,1.12-1.36,1.11
					l-1.3,0c-0.78,0-1.4-0.53-1.34-1.16l0.38-4.16C757.24,385,757.99,384.45,758.89,384.44z"/>
			</g>
		</g>
	</g>
	<rect x="453.57" y="346.74" class="st15" width="109" height="12"/>
	<text id="textoaterrizajederefuerzo" transform="matrix(1 0 0 1 453.5702 353.7397)" class="st16 st4 st7">Aterrizaje de refuerzo</text>
	<rect x="662" y="340.94" class="st15" width="63" height="23.6"/>
	<text id="textoaterrizajedelacápsula" transform="matrix(1 0 0 1 661.9982 347.9376)" class="st21"><tspan x="0" y="0" class="st3 st4 st7">Aterrizaje de </tspan><tspan x="0" y="12" class="st3 st4 st7">la cápsula</tspan></text>
</g>
</svg>
